<?xml version="1.0" standalone="no"?>
<!DOCTYPE svg PUBLIC "-//W3C//DTD SVG 20010904//EN"
 "http://www.w3.org/TR/2001/REC-SVG-20010904/DTD/svg10.dtd">
<svg version="1.0" xmlns="http://www.w3.org/2000/svg"
 width="616.000000pt" height="608.000000pt" viewBox="0 0 616.000000 608.000000"
 preserveAspectRatio="xMidYMid meet">

<g transform="translate(0.000000,608.000000) scale(0.100000,-0.100000)"
fill="#000000" stroke="none">
<path d="M2920 4615 c-199 -40 -386 -181 -468 -355 -20 -41 -37 -77 -38 -78
-1 -2 -27 5 -57 17 -132 49 -315 48 -459 -2 -206 -72 -373 -247 -423 -442 -19
-76 -19 -214 0 -290 51 -200 210 -370 413 -441 l67 -23 3 -561 2 -560 1105 0
1105 0 2 560 3 561 67 23 c200 70 361 240 413 436 19 72 19 220 0 295 -36 142
-144 286 -275 370 -179 114 -421 143 -607 74 -30 -12 -56 -19 -57 -17 -1 1
-19 38 -39 81 -60 129 -198 256 -340 314 -124 51 -283 65 -417 38z m230 -1955
l0 -550 -85 0 -85 0 0 550 0 550 85 0 85 0 0 -550z m-510 -155 l0 -395 -85 0
-85 0 0 395 0 395 85 0 85 0 0 -395z m1020 0 l0 -395 -85 0 -85 0 0 395 0 395
85 0 85 0 0 -395z"/>
<path d="M1962 1609 c4 -79 9 -106 25 -126 30 -41 67 -64 114 -74 57 -11 1871
-11 1928 0 48 10 84 33 115 74 16 22 21 47 24 127 l4 100 -1107 0 -1108 0 5
-101z"/>
</g>
</svg>
