<?xml version="1.0" standalone="no"?>
<!DOCTYPE svg PUBLIC "-//W3C//DTD SVG 20010904//EN"
 "http://www.w3.org/TR/2001/REC-SVG-20010904/DTD/svg10.dtd">
<svg version="1.0" xmlns="http://www.w3.org/2000/svg"
 width="616.000000pt" height="608.000000pt" viewBox="0 0 616.000000 608.000000"
 preserveAspectRatio="xMidYMid meet">

<g transform="translate(0.000000,608.000000) scale(0.100000,-0.100000)"
fill="#000000" stroke="none">
<path d="M2581 4634 c-243 -52 -448 -257 -517 -514 -24 -90 -24 -282 0 -370
41 -151 130 -292 239 -380 215 -174 518 -198 755 -58 89 52 201 170 249 264
70 134 88 209 88 359 0 144 -18 222 -77 339 -140 276 -442 424 -737 360z"/>
<path d="M3882 3193 c-5 -10 -15 -58 -21 -108 -20 -149 -15 -139 -93 -184 -39
-23 -75 -41 -80 -41 -5 0 -51 18 -103 40 -52 22 -105 40 -119 40 -22 0 -36
-20 -115 -164 -50 -91 -91 -175 -91 -188 0 -19 23 -43 95 -102 l95 -77 0 -92
0 -93 -92 -75 c-66 -52 -94 -82 -96 -99 -3 -24 139 -299 176 -342 21 -25 31
-23 148 27 l105 45 66 -40 c36 -21 69 -40 74 -42 5 -2 17 -61 27 -131 12 -83
24 -132 33 -138 8 -5 96 -9 196 -9 218 0 205 -9 224 154 7 59 17 112 23 117 6
5 40 28 75 50 l64 40 106 -45 c58 -26 114 -46 123 -46 20 0 37 25 136 206 40
73 72 141 72 152 0 13 -33 47 -97 99 l-98 80 2 91 1 92 94 78 c51 43 94 85 96
95 3 15 -126 266 -170 330 -26 36 -47 35 -157 -13 -50 -22 -96 -40 -102 -40
-5 0 -42 19 -83 43 l-73 42 -16 122 c-9 68 -19 127 -22 133 -4 6 -80 10 -200
10 -175 0 -195 -2 -203 -17z m314 -631 c91 -47 144 -137 143 -242 -1 -113 -50
-199 -140 -243 -138 -70 -301 -3 -356 146 -15 40 -16 131 -3 179 12 42 62 111
101 140 68 51 178 60 255 20z"/>
<path d="M2435 2838 c-44 -5 -136 -20 -205 -34 -407 -82 -715 -264 -826 -489
l-39 -79 -3 -228 -4 -228 822 0 c779 0 822 1 815 18 -131 329 -138 681 -21
980 l24 60 -52 6 c-74 9 -417 5 -511 -6z"/>
</g>
</svg>
