<?xml version="1.0" standalone="no"?>
<!DOCTYPE svg PUBLIC "-//W3C//DTD SVG 20010904//EN"
 "http://www.w3.org/TR/2001/REC-SVG-20010904/DTD/svg10.dtd">
<svg version="1.0" xmlns="http://www.w3.org/2000/svg"
 width="616.000000pt" height="608.000000pt" viewBox="0 0 616.000000 608.000000"
 preserveAspectRatio="xMidYMid meet">

<g transform="translate(0.000000,608.000000) scale(0.100000,-0.100000)"
fill="#000000" stroke="none">
<path d="M1719 4606 c-99 -27 -183 -97 -230 -191 l-24 -50 0 -1360 0 -1360 23
-47 c37 -74 96 -134 170 -170 l67 -33 1345 0 1345 0 67 33 c74 36 133 96 170
170 l23 47 0 1360 0 1360 -23 47 c-38 75 -96 134 -170 170 l-67 33 -1325 2
c-1029 1 -1335 -1 -1371 -11z m1636 -740 c102 -78 94 -235 -15 -294 -83 -46
-151 -35 -217 34 -62 64 -70 142 -20 215 55 82 175 103 252 45z m-75 -556 c51
-51 41 -123 -69 -534 -134 -502 -142 -556 -83 -556 26 0 174 79 187 100 11 17
43 11 59 -12 9 -12 16 -25 16 -29 0 -12 -329 -229 -392 -259 -42 -20 -79 -30
-110 -30 -61 0 -76 6 -95 44 -34 66 -12 207 101 651 76 296 83 333 63 359 -12
17 -18 18 -48 7 -19 -6 -74 -37 -122 -67 -48 -31 -89 -55 -91 -53 -1 2 -10 17
-20 33 l-19 29 34 29 c52 43 235 171 314 219 141 86 234 110 275 69z"/>
</g>
</svg>
