<?xml version="1.0" standalone="no"?>
<!DOCTYPE svg PUBLIC "-//W3C//DTD SVG 20010904//EN"
 "http://www.w3.org/TR/2001/REC-SVG-20010904/DTD/svg10.dtd">
<svg version="1.0" xmlns="http://www.w3.org/2000/svg"
 width="1000.000000pt" height="1000.000000pt" viewBox="0 0 1000.000000 1000.000000"
 preserveAspectRatio="xMidYMid meet">

<g transform="translate(0.000000,1000.000000) scale(0.100000,-0.100000)"
fill="#000000" stroke="none">
<path d="M4608 7413 c-26 -2 -52 -11 -60 -20 -28 -34 -20 -694 9 -770 11 -28
38 -31 143 -13 58 10 134 21 170 25 90 10 104 19 97 61 -3 18 -18 61 -33 94
-32 73 -52 77 -114 25 -58 -49 -96 -48 -117 2 -21 50 -12 121 17 145 16 13 32
16 60 12 47 -8 60 9 86 108 15 55 16 69 5 82 -19 22 -88 20 -136 -4 -54 -28
-58 -26 -52 22 10 76 71 99 146 56 50 -28 61 -20 97 74 40 102 39 103 -132
104 -76 0 -160 -1 -186 -3z"/>
<path d="M5062 7403 c-8 -14 -7 -34 2 -70 29 -110 58 -134 114 -93 17 13 40
20 56 18 l27 -3 -70 -112 c-147 -235 -206 -398 -166 -459 l16 -26 172 7 c200
7 213 9 226 33 11 21 -11 122 -35 160 -19 29 -34 28 -79 -8 -21 -16 -49 -30
-62 -30 -54 0 -38 60 53 195 35 52 93 138 129 191 68 101 81 148 50 174 -17
14 -110 26 -291 36 -125 6 -132 6 -142 -13z"/>
<path d="M4080 7351 c-126 -23 -139 -28 -146 -58 -17 -65 14 -295 77 -588 33
-150 59 -222 83 -231 26 -10 154 34 158 54 2 9 -9 56 -24 105 -43 134 -42 140
52 243 44 49 94 115 112 149 30 54 33 68 33 146 0 76 -3 90 -27 126 -50 75
-126 88 -318 54z m158 -163 c21 -21 13 -72 -17 -119 -46 -69 -69 -94 -78 -86
-4 5 -10 48 -11 96 -3 72 -1 91 13 104 19 20 76 22 93 5z"/>
<path d="M5812 7325 c-144 -67 -247 -242 -272 -461 -17 -158 -2 -189 97 -200
53 -5 68 -4 81 10 14 14 15 22 4 61 -19 72 -16 121 10 139 24 17 133 22 142 7
8 -13 -19 -85 -48 -128 -28 -41 -34 -88 -13 -96 8 -3 43 -8 79 -12 62 -7 66
-6 85 19 35 44 68 197 68 316 0 120 -16 185 -67 270 -28 46 -86 100 -107 100
-3 0 -30 -11 -59 -25z m57 -197 c5 -13 12 -38 16 -55 l7 -33 -72 0 -72 0 17
28 c27 41 67 82 82 82 7 0 17 -10 22 -22z"/>
<path d="M3493 7226 c-34 -29 -74 -112 -100 -207 -28 -104 -23 -307 11 -434
46 -173 94 -281 138 -309 13 -8 31 -4 75 13 97 40 102 52 52 121 -39 53 -68
117 -69 148 0 38 26 76 68 100 48 27 77 28 88 5 4 -10 8 -74 8 -143 1 -131 6
-150 35 -150 27 0 114 31 134 48 23 21 22 94 -3 218 -61 294 -160 478 -310
574 -67 43 -91 46 -127 16z m146 -277 c23 -34 41 -66 41 -73 -1 -6 -33 -26
-72 -44 l-71 -32 7 67 c9 86 25 143 42 143 7 0 31 -28 53 -61z"/>
<path d="M6237 7200 c-38 -45 -97 -244 -132 -449 -21 -118 -14 -132 72 -148
83 -15 89 -9 98 89 8 87 16 108 45 108 26 0 31 -23 29 -123 -2 -105 2 -111 89
-128 88 -18 97 -8 97 109 0 67 -5 97 -21 133 l-21 45 48 23 c35 16 56 34 74
65 52 88 19 169 -90 224 -41 20 -230 82 -251 82 -7 0 -23 -13 -37 -30z m206
-164 c39 -30 4 -65 -84 -83 -35 -7 -38 8 -12 62 14 29 22 35 47 35 17 0 39 -7
49 -14z"/>
<path d="M2869 7006 c-48 -18 -113 -46 -145 -62 -52 -25 -59 -33 -62 -61 -6
-62 114 -378 258 -680 73 -152 94 -183 126 -183 38 0 134 58 134 82 0 10 -27
68 -61 128 -59 106 -69 141 -55 188 l8 24 25 -24 c40 -37 95 -117 134 -193 20
-39 43 -71 53 -73 24 -5 120 35 141 58 15 16 15 24 5 57 -27 85 -83 168 -170
254 l-88 85 19 55 c36 105 15 234 -49 310 -67 78 -137 87 -273 35z m139 -184
c22 -28 14 -102 -19 -172 -35 -75 -37 -74 -75 45 -29 93 -26 121 18 140 35 14
56 10 76 -13z"/>
<path d="M6794 6988 c-35 -42 -80 -141 -133 -293 -48 -137 -51 -183 -11 -202
49 -23 119 -38 130 -27 6 6 19 51 29 100 24 115 69 224 126 299 25 33 45 68
45 77 0 19 -105 78 -139 78 -10 0 -32 -15 -47 -32z"/>
<path d="M2365 6792 c-33 -10 -78 -28 -100 -39 -67 -35 -160 -110 -190 -153
l-28 -41 16 -59 c27 -94 77 -199 99 -206 30 -9 45 12 76 105 15 47 32 86 38
88 6 2 30 -47 54 -109 87 -229 273 -566 325 -590 20 -9 32 -4 87 34 34 24 64
51 66 61 2 10 -36 77 -85 150 -104 153 -186 304 -237 433 -53 135 -49 154 29
114 82 -42 104 -15 85 99 -17 100 -38 124 -116 128 -36 1 -82 -4 -119 -15z"/>
<path d="M7126 6765 c-69 -28 -119 -66 -163 -123 -40 -53 -75 -145 -71 -191 3
-33 8 -39 58 -63 94 -47 126 -35 114 41 -8 48 14 74 54 65 46 -11 112 -42 112
-53 0 -6 -22 -27 -49 -46 -58 -42 -67 -60 -41 -82 29 -25 121 -61 142 -55 27
7 84 77 116 142 24 48 27 67 27 150 0 102 -18 158 -70 214 -22 23 -31 26 -97
26 -54 0 -88 -7 -132 -25z m148 -131 c7 -17 8 -64 2 -64 -2 0 -28 11 -57 24
l-54 24 35 16 c45 20 66 20 74 0z"/>
<path d="M8195 6606 c-11 -7 -138 -74 -283 -147 -385 -197 -622 -318 -750
-383 l-113 -59 -67 62 c-72 66 -79 72 -132 111 -114 84 -341 200 -485 248
-107 36 -287 81 -415 104 -169 30 -608 32 -795 5 -128 -19 -301 -52 -350 -66
-16 -5 -64 -19 -105 -31 -199 -59 -391 -136 -570 -231 -34 -19 -74 -40 -89
-48 -48 -25 -275 -181 -346 -237 -214 -168 -438 -436 -552 -659 -65 -127 -125
-319 -150 -475 -9 -60 -5 -282 6 -350 22 -127 62 -241 133 -381 62 -125 101
-139 48 -18 -76 173 -94 262 -95 469 0 124 5 188 19 255 48 230 165 474 325
675 134 169 419 416 581 504 25 13 82 46 126 73 147 89 488 223 683 269 251
58 420 78 671 77 453 0 845 -107 1170 -317 91 -59 170 -124 170 -139 0 -13
-31 -29 -540 -288 -173 -88 -319 -164 -325 -169 -12 -9 -511 -260 -640 -320
-139 -66 -231 -83 -353 -63 -158 25 -232 27 -335 9 -126 -21 -273 -70 -345
-114 -31 -19 -128 -78 -215 -131 -87 -53 -193 -117 -235 -142 -237 -142 -348
-212 -359 -226 -15 -19 -17 -63 -4 -63 9 0 121 64 236 133 28 17 90 52 138 78
48 26 93 52 100 57 7 5 53 32 102 60 50 28 126 71 170 96 95 55 154 62 180 22
19 -28 9 -60 -26 -92 -13 -12 -125 -73 -249 -136 -615 -315 -577 -294 -567
-322 15 -38 38 -32 187 49 47 26 195 103 330 171 135 68 265 135 290 149 61
34 122 34 156 -1 20 -19 24 -31 19 -52 -4 -15 -11 -32 -15 -37 -11 -13 -218
-109 -430 -200 -226 -97 -403 -177 -417 -188 -7 -5 -13 -18 -13 -28 0 -14 7
-19 30 -19 31 0 41 4 380 153 342 151 482 207 520 207 41 0 80 -24 80 -49 0
-39 -58 -71 -275 -152 -113 -43 -324 -126 -431 -170 -50 -20 -110 -42 -132
-49 -52 -14 -53 -26 -3 -40 40 -11 88 3 256 72 28 12 106 41 175 65 69 24 148
53 175 63 28 10 95 34 150 53 55 20 118 43 140 51 54 19 150 74 216 123 89 66
141 131 209 261 55 106 73 130 120 168 52 42 212 126 330 174 30 12 125 54
210 93 202 92 395 177 550 242 69 29 163 71 210 93 47 21 165 74 264 116 203
88 183 89 241 -14 184 -326 198 -698 40 -1080 -47 -114 -164 -309 -232 -387
-15 -17 -57 -66 -93 -108 -100 -118 -274 -269 -432 -374 -42 -28 -83 -51 -90
-51 -20 0 -58 -43 -58 -65 0 -17 3 -16 28 7 15 14 45 35 67 47 36 19 186 114
261 166 113 77 340 285 441 405 138 163 253 363 316 550 47 139 66 236 73 377
10 215 -35 421 -136 609 -21 39 -35 76 -31 82 9 14 124 68 316 147 83 35 254
108 380 165 127 56 287 126 357 157 70 30 132 61 138 68 24 29 -160 293 -205
295 -6 0 -19 -6 -30 -14z"/>
</g>
</svg>
