<?xml version="1.0" standalone="no"?>
<!DOCTYPE svg PUBLIC "-//W3C//DTD SVG 20010904//EN"
 "http://www.w3.org/TR/2001/REC-SVG-20010904/DTD/svg10.dtd">
<svg version="1.0" xmlns="http://www.w3.org/2000/svg"
 width="1000.000000pt" height="1000.000000pt" viewBox="0 0 1000.000000 1000.000000"
 preserveAspectRatio="xMidYMid meet">

<g transform="translate(0.000000,1000.000000) scale(0.100000,-0.100000)"
fill="#000000" stroke="none">
<path d="M0 5000 l0 -5000 5000 0 5000 0 0 5000 0 5000 -5000 0 -5000 0 0
-5000z m4747 2424 c-3 -3 -12 -4 -19 -1 -8 3 -5 6 6 6 11 1 17 -2 13 -5z m493
-178 c0 -8 -4 -17 -9 -20 -10 -7 -23 19 -14 28 11 11 23 6 23 -8z m-527 -77
c5 -3 2 -9 -7 -12 -12 -5 -16 0 -16 15 0 12 3 17 8 12 4 -5 11 -12 15 -15z
m1141 -37 c3 -5 -1 -9 -9 -9 -8 0 -12 4 -9 9 3 4 7 8 9 8 2 0 6 -4 9 -8z m-64
-67 c0 -8 -7 -15 -16 -15 -14 0 -14 3 -4 15 7 8 14 15 16 15 2 0 4 -7 4 -15z
m87 -17 c-3 -8 -6 -5 -6 6 -1 11 2 17 5 13 3 -3 4 -12 1 -19z m-1714 -40 c-9
-15 -23 -8 -23 12 0 17 2 19 14 8 8 -7 12 -16 9 -20z m2272 -15 c-18 -17 -18
-17 -6 0 11 14 11 20 0 35 -12 16 -12 16 6 0 19 -18 19 -18 0 -35z m-2840 -3
c3 -5 1 -10 -4 -10 -6 0 -11 5 -11 10 0 6 2 10 4 10 3 0 8 -4 11 -10z m2752
-32 c-3 -7 -5 -2 -5 12 0 14 2 19 5 13 2 -7 2 -19 0 -25z m40 6 c-3 -3 -12 -4
-19 -1 -8 3 -5 6 6 6 11 1 17 -2 13 -5z m-2718 -76 c11 -15 11 -18 -1 -18 -7
0 -14 10 -15 21 -1 12 -1 20 0 18 2 -2 9 -12 16 -21z m2148 -4 c-3 -3 -12 -4
-19 -1 -8 3 -5 6 6 6 11 1 17 -2 13 -5z m50 -26 c-3 -8 -6 -5 -6 6 -1 11 2 17
5 13 3 -3 4 -12 1 -19z m-613 -13 c3 -8 1 -15 -4 -15 -6 0 -10 7 -10 15 0 8 2
15 4 15 2 0 6 -7 10 -15z m-1690 -10 c3 -8 1 -15 -4 -15 -6 0 -10 7 -10 15 0
8 2 15 4 15 2 0 6 -7 10 -15z m2966 1 c0 -3 -4 -8 -10 -11 -5 -3 -10 -1 -10 4
0 6 5 11 10 11 6 0 10 -2 10 -4z m-3619 -43 c-12 -20 -14 -14 -5 12 4 9 9 14
11 11 3 -2 0 -13 -6 -23z m1833 2 c11 -8 16 -15 10 -15 -5 0 -18 7 -28 15 -11
8 -16 15 -10 15 5 0 18 -7 28 -15z m1590 -11 c9 -23 7 -31 -3 -15 -8 12 -12
12 -25 2 -19 -16 -21 -6 -3 14 16 19 24 18 31 -1z m-3317 -26 c-3 -7 -5 -2 -5
12 0 14 2 19 5 13 2 -7 2 -19 0 -25z m728 -98 c3 -6 -1 -7 -9 -4 -18 7 -21 14
-7 14 6 0 13 -4 16 -10z m-775 -30 c0 -19 -18 -19 -23 -1 -3 14 -1 18 9 14 8
-3 14 -9 14 -13z m4266 -6 c0 -9 5 -19 13 -22 10 -3 11 2 6 19 -5 16 -4 21 3
14 14 -14 25 -55 15 -55 -5 0 -18 7 -29 15 -10 8 -27 15 -36 15 -10 0 -18 5
-18 11 0 5 4 8 9 4 5 -3 12 -1 16 5 10 16 23 12 21 -6z m-4746 -42 c0 -5 -7
-9 -15 -9 -8 0 -15 4 -15 9 0 4 7 8 15 8 8 0 15 -4 15 -8z m4600 -107 c-7 -9
-15 -13 -17 -11 -7 7 7 26 19 26 6 0 6 -6 -2 -15z m-4790 -39 c0 -6 -4 -5 -9
3 -5 7 -14 10 -20 7 -13 -8 -14 -4 -4 20 6 16 7 16 20 -2 7 -10 13 -23 13 -28z
m4920 4 c0 -19 -18 -19 -23 -1 -3 14 -1 18 9 14 8 -3 14 -9 14 -13z m-4280
-818 c0 -4 -12 -13 -27 -20 -39 -17 -87 -44 -93 -51 -3 -3 -17 -12 -32 -20
-16 -8 -28 -18 -28 -23 0 -4 -7 -8 -15 -8 -8 0 -15 -4 -15 -10 0 -5 -6 -10
-14 -10 -8 0 -26 -15 -40 -32 -14 -18 -26 -27 -26 -20 0 8 -13 3 -35 -14 -35
-27 -50 -69 -20 -57 9 3 13 8 10 11 -9 9 26 41 40 36 7 -3 25 10 40 28 15 18
32 33 36 33 5 0 25 12 43 28 19 15 41 27 48 27 15 -1 -52 -59 -67 -60 -6 0
-30 -18 -54 -39 -24 -22 -47 -39 -50 -38 -6 1 -23 -15 -158 -146 -38 -37 -57
-48 -72 -44 -14 3 -21 0 -21 -9 0 -8 -4 -14 -10 -14 -5 0 -10 7 -10 15 0 15
10 19 42 16 9 -1 27 8 39 20 20 20 20 21 3 15 -69 -29 -78 -4 -18 55 34 34 47
40 56 31 13 -13 58 -17 58 -4 0 16 -19 34 -29 28 -23 -15 -10 13 14 28 25 17
25 16 19 -7 -3 -14 -2 -27 4 -30 5 -4 9 8 9 25 0 34 33 68 113 115 25 15 61
39 81 55 20 15 38 25 41 22 3 -2 11 2 18 11 7 8 18 15 26 15 7 0 19 6 26 13
32 28 68 44 68 29z m20 -16 c0 -4 -77 -56 -109 -74 -25 -13 -25 -13 -6 8 10
11 20 18 23 16 2 -3 14 4 26 16 11 11 30 24 41 28 25 11 25 11 25 6z m-570
-386 c0 -5 -4 -10 -8 -10 -13 0 -72 -56 -72 -68 0 -7 -4 -12 -10 -12 -14 0
-89 -80 -107 -114 -11 -22 -12 -27 -1 -24 7 3 18 15 25 28 15 30 109 130 123
130 13 0 13 -17 -1 -26 -8 -4 -7 -9 2 -15 11 -7 10 -13 -8 -30 l-22 -22 6 23
6 23 -26 -19 c-15 -10 -27 -24 -27 -31 0 -6 -6 -14 -12 -16 -9 -4 -10 -6 -1
-6 6 -1 19 6 27 15 14 13 16 13 16 1 0 -9 -3 -17 -8 -19 -4 -1 -22 -22 -41
-46 -18 -24 -36 -40 -39 -37 -3 3 2 11 10 18 9 6 19 23 23 37 7 23 6 23 -19
-6 -14 -18 -26 -36 -26 -42 0 -5 -7 -12 -15 -16 -8 -3 -15 -11 -15 -18 0 -9 3
-9 12 0 19 19 30 14 18 -8 -12 -22 -32 -22 -42 0 -5 12 -7 11 -7 -3 -1 -11
-10 -30 -21 -44 -21 -28 -27 -63 -9 -63 6 0 2 -12 -9 -27 -22 -32 -96 -185
-107 -223 -4 -14 -11 -29 -15 -35 -4 -5 -13 -31 -21 -57 -7 -27 -17 -48 -21
-48 -4 0 -5 7 -2 15 4 8 1 15 -5 15 -6 0 -11 -9 -11 -21 0 -11 -4 -18 -8 -15
-4 2 -7 -11 -7 -29 0 -18 3 -31 8 -28 4 2 7 15 7 29 0 13 5 24 10 24 14 0 1
-52 -17 -66 -10 -9 -11 -13 -2 -16 8 -3 7 -20 -4 -64 -9 -33 -19 -122 -23
-197 -4 -75 -11 -137 -16 -137 -6 0 -8 27 -5 63 17 222 27 302 36 305 6 2 11
8 11 13 0 6 -4 8 -9 5 -5 -4 -11 0 -14 6 -10 30 -17 -6 -22 -119 -3 -66 -9
-133 -13 -149 -4 -16 -7 -47 -6 -69 2 -22 3 -51 3 -64 1 -19 4 -21 15 -12 11
9 15 0 20 -50 4 -33 10 -67 13 -75 3 -8 0 -14 -5 -14 -6 0 -12 15 -14 33 l-4
32 -8 -30 c-4 -16 -16 -47 -25 -67 -12 -23 -16 -48 -12 -70 l6 -33 3 35 c4 56
12 81 22 75 6 -3 10 -17 10 -31 0 -13 5 -24 10 -24 6 0 10 9 10 19 0 11 -5 23
-10 26 -12 7 -13 25 -2 25 13 0 33 -57 26 -75 -5 -12 -4 -16 3 -12 6 4 15 -17
23 -56 19 -100 27 -108 113 -103 39 2 88 9 107 15 19 6 46 10 60 10 l25 -2
-25 -5 c-22 -4 -23 -5 -6 -12 11 -3 54 0 95 7 42 7 81 14 88 15 7 1 12 4 11 7
-2 23 7 31 40 36 20 3 88 15 150 26 62 12 116 18 119 15 3 -3 -13 -8 -36 -12
-22 -4 -41 -11 -41 -16 0 -5 3 -7 8 -4 4 2 30 5 57 7 28 1 59 7 70 12 18 10
55 18 140 33 17 3 46 13 65 23 19 10 52 22 73 25 21 4 45 10 53 13 8 3 14 0
14 -5 0 -6 -12 -13 -27 -15 -24 -3 -23 -4 7 -5 41 -2 124 20 98 25 -9 3 -26
-1 -37 -6 -13 -7 -22 -8 -26 -1 -3 5 7 12 22 16 15 3 46 11 68 16 22 6 71 14
110 18 74 9 170 27 320 59 170 37 317 62 323 57 3 -3 -9 -9 -26 -12 -18 -4
-32 -9 -32 -13 0 -4 -19 -7 -42 -8 -52 -1 -167 -19 -175 -26 -11 -12 9 -27 35
-27 19 0 23 3 13 9 -13 8 87 31 136 31 11 0 40 7 64 16 24 10 65 16 92 15 26
-1 47 2 47 8 0 5 -9 7 -20 4 -11 -3 -20 0 -20 6 0 7 -10 9 -27 6 -23 -5 -21
-2 11 14 22 12 44 21 49 21 6 0 51 42 101 93 96 97 162 139 235 152 28 5 39
10 31 15 -15 9 18 20 144 46 111 23 335 15 424 -15 35 -11 83 -21 107 -21 41
0 73 -19 62 -37 -3 -5 1 -17 9 -28 13 -18 14 -18 14 8 0 18 5 27 16 27 13 0
14 -3 5 -14 -10 -11 -10 -20 -1 -36 7 -12 9 -33 6 -46 -4 -14 -2 -24 4 -24 5
0 10 14 10 30 0 17 5 30 10 30 6 0 10 -7 10 -16 0 -21 -41 -94 -53 -94 -5 0
-4 6 2 13 6 8 8 17 5 20 -6 5 -15 0 -49 -30 -7 -7 -19 -13 -25 -13 -6 0 -15
-13 -21 -28 -6 -19 -20 -31 -41 -38 -17 -5 -33 -14 -35 -20 -3 -9 7 -8 34 1
20 7 39 18 41 24 2 6 11 11 19 11 9 0 13 3 10 7 -9 9 23 43 40 43 19 0 -55
-73 -94 -94 -18 -9 -42 -15 -55 -14 -13 1 -42 -11 -65 -26 -23 -16 -49 -26
-56 -23 -7 3 -24 -4 -38 -14 -13 -10 -29 -19 -35 -19 -19 0 -76 -32 -69 -38 3
-3 20 1 38 10 18 8 52 23 77 33 25 9 59 23 75 32 17 8 41 19 55 24 l25 9 -25
-20 c-14 -11 -28 -20 -33 -20 -4 0 -26 -9 -50 -19 -130 -59 -189 -81 -219 -81
-19 0 -38 -4 -44 -9 -18 -17 -116 -31 -212 -29 l-97 1 127 7 c70 3 131 9 134
13 4 4 -8 7 -27 8 -19 0 -28 3 -21 6 15 6 6 23 -14 23 -8 0 -14 -7 -14 -15 0
-12 -14 -15 -62 -16 -148 -4 -212 3 -268 28 -73 32 -158 39 -240 20 -61 -14
-81 -15 -68 -1 3 3 39 10 80 16 79 11 195 5 212 -12 5 -5 18 -10 29 -10 10 0
25 -7 34 -15 8 -8 20 -12 26 -8 7 4 3 10 -11 16 -12 6 -22 14 -22 19 0 4 -13
8 -28 8 -15 0 -32 4 -38 10 -13 13 -180 15 -233 2 -25 -6 -49 -9 -53 -6 -4 3
-8 1 -8 -4 0 -5 -14 -6 -31 -4 -24 4 -30 1 -27 -9 3 -9 16 -13 34 -11 21 2 25
0 14 -7 -15 -9 -111 -31 -149 -34 -12 -1 -21 -4 -21 -8 0 -4 -53 -19 -117 -34
-65 -15 -181 -43 -258 -62 -77 -20 -151 -38 -165 -40 -14 -2 -34 -8 -45 -13
-25 -11 -109 -30 -129 -30 -9 0 -16 4 -16 9 0 5 13 9 30 9 16 -1 36 4 44 11 8
7 20 11 28 10 20 -4 127 21 133 32 3 5 16 8 28 8 26 0 118 19 125 26 3 3 -13
5 -36 5 -22 0 -44 -5 -48 -11 -4 -7 -24 -9 -52 -6 -29 3 -40 2 -31 -4 10 -7 3
-8 -21 -6 -19 2 -27 2 -17 0 33 -8 17 -24 -18 -17 -23 4 -35 2 -35 -5 0 -6
-19 -11 -45 -11 -25 0 -45 -4 -45 -10 0 -5 -11 -10 -24 -10 -14 0 -27 -4 -30
-8 -3 -5 -21 -9 -41 -10 -19 -1 -44 -6 -54 -12 -11 -5 -38 -10 -60 -10 -23 0
-41 -5 -41 -11 0 -11 97 -3 138 12 13 5 33 9 45 9 37 -1 0 -16 -73 -30 -36 -6
-82 -18 -103 -26 -44 -17 -61 -18 -52 -4 4 6 -11 10 -39 10 -25 0 -48 -5 -51
-10 -3 -5 -21 -10 -39 -10 -19 0 -39 -7 -47 -16 -11 -14 -9 -15 27 -9 21 4 54
14 71 22 18 9 41 12 50 8 13 -5 1 -11 -42 -22 -33 -8 -98 -23 -145 -34 -47
-12 -121 -31 -165 -44 -44 -13 -116 -31 -160 -40 -54 -11 -86 -23 -97 -36 -17
-19 -16 -22 9 -62 14 -23 44 -64 66 -90 43 -52 45 -74 3 -32 -14 14 -26 28
-26 31 0 12 -59 84 -64 76 -2 -4 11 -28 30 -51 19 -24 34 -51 34 -60 0 -13 2
-13 9 -3 6 10 10 7 15 -13 5 -21 11 -26 27 -22 18 5 20 2 15 -18 -5 -18 -1
-27 14 -35 11 -6 17 -16 14 -25 -4 -9 0 -15 9 -15 25 0 25 21 0 46 -13 13 -23
28 -23 34 0 5 44 -34 98 -87 53 -53 133 -123 177 -155 44 -31 85 -62 92 -68 7
-5 15 -10 18 -10 12 0 86 -52 81 -57 -3 -3 -17 2 -32 11 -25 17 -47 14 -28 -3
16 -15 73 -30 76 -20 2 5 39 -9 82 -31 43 -22 70 -40 60 -40 -10 0 -45 13 -76
29 -63 32 -79 26 -22 -8 19 -12 60 -24 91 -27 50 -6 216 -63 186 -64 -21 0
-15 -16 7 -17 11 -1 18 2 15 8 -9 13 7 10 29 -6 10 -7 15 -18 11 -24 -3 -6 -2
-11 3 -11 5 0 24 -3 42 -7 24 -4 31 -3 26 5 -4 7 -18 12 -32 12 -13 0 -24 4
-24 9 0 5 30 1 68 -10 37 -11 90 -26 117 -35 l50 -14 -50 5 c-36 4 -45 3 -34
-5 11 -6 15 -18 11 -35 -4 -23 -2 -25 34 -24 l39 1 -34 14 c-43 19 -30 34 34
36 40 2 50 -1 63 -20 12 -19 23 -22 76 -21 67 0 53 17 -16 18 -21 1 -38 5 -38
9 0 5 26 5 58 0 212 -32 531 -37 727 -13 134 17 138 17 110 5 -19 -8 -19 -9 3
-9 12 -1 22 -5 22 -11 0 -5 9 -10 20 -10 11 0 20 -4 20 -10 0 -13 31 -13 50 1
12 9 12 10 -5 7 -11 -3 -33 1 -50 8 -16 7 -25 13 -18 14 7 0 10 7 6 17 -5 12
-2 15 10 10 9 -3 65 5 124 19 59 14 119 28 132 31 20 5 23 3 18 -11 -7 -17 2
-15 31 8 11 8 10 11 -5 17 -16 7 -16 8 4 8 30 1 144 30 165 41 10 6 23 10 29
10 6 0 27 7 47 16 21 9 46 20 57 25 82 35 125 48 125 36 0 -7 -9 -13 -21 -14
-11 -1 -43 -13 -70 -27 -27 -15 -56 -26 -64 -26 -8 0 -23 -4 -33 -10 -31 -18
-106 -42 -130 -42 -18 0 -20 -3 -12 -13 9 -11 3 -12 -32 -9 -24 2 -35 1 -25
-2 27 -8 20 -24 -10 -24 -22 0 -25 -2 -13 -10 12 -8 13 -12 2 -19 -8 -4 -12
-16 -10 -26 2 -14 -5 -20 -29 -26 -18 -3 -33 -3 -33 2 0 5 7 9 15 9 8 0 15 5
15 10 0 18 -29 10 -35 -10 -4 -14 -15 -20 -36 -20 -17 0 -28 -4 -25 -9 3 -5
-11 -11 -32 -14 -50 -8 -86 -15 -152 -32 -82 -20 -157 -29 -145 -17 6 6 30 12
55 15 25 3 68 12 95 20 l50 15 -46 -3 c-25 -1 -54 -7 -65 -12 -10 -6 -37 -11
-58 -11 -21 -1 -46 -8 -55 -15 -9 -8 -43 -19 -75 -26 -75 -14 -450 -14 -536 0
-36 6 -78 11 -95 11 -40 -1 -270 44 -292 57 -22 13 -8 14 33 2 17 -5 37 -5 43
-1 8 4 -5 10 -31 14 -24 4 -71 21 -106 38 -34 17 -66 28 -69 24 -3 -3 1 -6 10
-6 20 0 23 -17 5 -23 -7 -2 -4 -3 6 -1 21 3 52 -11 75 -34 13 -13 12 -14 -9
-7 -14 4 -29 11 -35 16 -5 5 -19 9 -31 9 -28 0 -192 58 -200 71 -3 5 -14 9
-24 9 -10 0 -53 16 -94 35 -56 26 -74 39 -70 50 4 8 -1 17 -10 21 -25 10 -19
23 17 34 31 9 31 10 -8 4 -22 -3 -43 -8 -47 -10 -16 -10 -7 -24 17 -30 21 -5
37 -24 20 -24 -13 0 -116 54 -126 66 -6 8 -16 14 -21 14 -5 0 -26 11 -46 25
-20 14 -32 25 -27 25 6 0 24 -9 40 -20 17 -11 35 -20 42 -20 7 0 24 -11 38
-26 15 -15 30 -22 38 -17 9 5 7 8 -5 11 -10 2 -18 9 -18 16 0 14 -57 49 -69
42 -4 -3 -17 4 -29 14 -12 11 -24 20 -28 20 -3 0 -19 11 -36 25 -16 14 -35 25
-41 25 -7 0 -1 -9 13 -20 14 -11 19 -20 12 -20 -15 0 -122 81 -122 92 0 11 18
10 25 -2 3 -5 11 -10 17 -10 6 0 3 9 -7 20 -19 21 -45 27 -45 10 0 -13 -44 19
-59 43 -9 14 -8 17 10 17 13 0 19 -5 16 -13 -3 -7 4 -19 15 -26 18 -11 20 -11
14 4 -3 9 -6 20 -6 25 0 4 -17 16 -37 26 -21 9 -32 19 -25 21 14 5 16 33 2 33
-6 0 -9 -4 -8 -9 2 -5 0 -9 -4 -10 -22 -3 -28 1 -28 18 0 27 -26 47 -44 32
-11 -9 -21 -3 -51 31 -20 24 -42 52 -47 63 -11 19 -10 19 8 5 10 -8 24 -21 30
-29 18 -23 54 -21 54 2 0 15 -3 17 -14 8 -10 -9 -16 -8 -26 4 -7 8 -19 15 -27
15 -8 0 -11 5 -8 10 3 6 -5 10 -19 10 -18 0 -30 9 -41 30 -9 17 -13 35 -10 40
6 10 -25 80 -37 80 -13 0 -9 -17 7 -30 8 -7 15 -22 15 -34 l0 -21 -13 21 c-47
82 -60 112 -58 139 1 17 -9 56 -23 88 -15 32 -26 64 -26 73 0 8 -5 12 -10 9
-7 -4 -6 -13 1 -26 5 -11 8 -28 6 -37 -3 -13 -7 -9 -17 13 -38 90 -47 121 -75
258 -30 152 -34 350 -10 486 19 104 30 121 19 26 -5 -38 -9 -91 -9 -117 0 -27
-2 -48 -5 -48 -3 0 -5 -36 -6 -80 0 -44 2 -80 5 -80 3 0 5 -21 3 -47 -2 -29 2
-55 10 -66 11 -15 12 -4 7 65 -5 86 -5 146 5 333 3 62 1 112 -4 115 -15 9 5
65 23 65 8 0 19 4 23 8 4 4 -2 7 -14 7 -12 0 -22 1 -22 3 0 1 7 22 15 47 l15
45 -6 -42 c-4 -28 -2 -43 5 -43 6 0 11 14 11 31 0 17 7 37 15 45 8 9 15 27 15
42 0 15 7 40 15 56 18 33 19 39 5 31 -5 -3 -17 -31 -26 -61 -8 -29 -20 -54
-25 -54 -11 0 -12 13 -1 26 4 5 16 34 26 64 11 30 23 60 29 65 7 7 8 4 4 -8
-4 -12 -3 -16 4 -11 6 3 8 15 6 26 -6 22 39 128 54 128 13 0 11 -11 -7 -31
-19 -21 -33 -106 -16 -95 7 4 12 23 12 42 0 22 5 34 14 34 14 0 33 67 22 78
-3 3 -6 0 -6 -6 0 -7 -5 -12 -11 -12 -6 0 -1 15 13 33 13 17 29 43 36 57 40
79 166 242 263 338 78 79 99 94 99 72z m20 -49 c0 -12 -50 -64 -56 -58 -3 3 7
19 23 36 31 33 33 35 33 22z m-40 -11 c0 -5 -4 -10 -10 -10 -5 0 -10 5 -10 10
0 6 5 10 10 10 6 0 10 -4 10 -10z m-216 -308 c2 -4 -2 -16 -10 -27 -13 -18
-14 -18 -14 8 0 25 13 36 24 19z m3103 -754 c-3 -8 -6 -5 -6 6 -1 11 2 17 5
13 3 -3 4 -12 1 -19z m1160 -105 c-3 -10 -5 -2 -5 17 0 19 2 27 5 18 2 -10 2
-26 0 -35z m-25 -13 c-2 -16 -8 -30 -13 -30 -11 0 -11 3 1 34 13 34 18 33 12
-4z m11 -65 c-5 -29 -8 -34 -13 -20 -4 10 -2 29 4 41 14 30 17 25 9 -21z m-39
-24 c-4 -17 -9 -30 -11 -27 -3 2 -2 19 2 36 9 41 17 33 9 -9z m-2001 -218 c-7
-2 -19 -2 -25 0 -7 3 -2 5 12 5 14 0 19 -2 13 -5z m-1403 -13 c0 -5 -20 -10
-44 -10 -25 0 -56 -4 -70 -10 -16 -6 -26 -6 -26 0 0 8 13 12 90 23 45 7 50 7
50 -3z m3360 -9 c0 -5 -7 -11 -15 -15 -15 -5 -20 5 -8 17 9 10 23 9 23 -2z
m-3536 -26 c-21 -16 -54 -20 -54 -6 0 5 10 12 23 14 46 9 51 7 31 -8z m-384
-65 c0 -5 -9 -10 -19 -10 -11 0 -21 -5 -23 -11 -3 -9 -12 -9 -33 -2 l-30 10
45 11 c61 13 60 13 60 2z m3856 -22 c-36 -66 -52 -88 -63 -88 -7 0 -10 -6 -7
-13 2 -7 -3 -21 -12 -32 -16 -20 -16 -20 -9 0 4 11 8 26 8 33 0 8 13 27 29 43
18 17 26 34 22 41 -4 7 -4 10 1 6 5 -5 14 1 22 12 19 27 25 25 9 -2z m-3976
-8 c-19 -13 -30 -13 -30 0 0 6 10 10 23 10 18 0 19 -2 7 -10z m3920 -16 c0
-15 -22 -44 -30 -39 -6 4 -5 14 3 25 11 19 27 27 27 14z m-65 -120 c-15 -22
-38 -48 -52 -60 -19 -15 -23 -23 -14 -28 8 -5 27 8 51 36 22 23 40 38 40 32 0
-6 -9 -19 -20 -29 -11 -10 -22 -26 -25 -35 -3 -10 -15 -20 -25 -23 -11 -3 -20
-13 -20 -22 0 -10 -26 -51 -57 -92 -58 -76 -81 -99 -70 -70 3 9 2 19 -3 22 -6
4 -10 0 -11 -7 0 -7 -4 -5 -8 6 -6 15 -10 12 -25 -22 -10 -22 -16 -46 -14 -54
3 -7 -1 -18 -8 -25 -19 -19 -29 -16 -13 4 12 15 12 16 -3 10 -12 -4 -18 -1
-18 9 0 8 -5 12 -10 9 -7 -4 -7 -12 0 -25 8 -14 5 -21 -15 -34 -26 -17 -55
-21 -55 -8 0 4 10 12 22 17 12 6 23 16 24 23 1 7 0 8 -3 2 -3 -6 -16 -16 -30
-21 -15 -5 -23 -15 -21 -26 4 -19 45 -25 52 -8 2 7 14 15 26 18 14 4 -3 -18
-47 -58 -37 -35 -74 -64 -80 -65 -7 0 -13 -4 -13 -8 0 -5 -20 -22 -45 -40 -25
-17 -45 -27 -45 -21 0 14 -40 1 -66 -22 -11 -11 -28 -19 -37 -19 -9 0 -24 -11
-33 -25 -9 -15 -26 -25 -39 -25 -13 0 -25 -7 -29 -15 -3 -8 -12 -15 -20 -15
-21 0 -30 -19 -16 -35 10 -12 9 -15 -3 -15 -8 0 -20 -7 -27 -15 -7 -8 -18 -15
-24 -14 -6 0 -1 7 12 16 23 16 29 33 12 33 -5 0 -18 -9 -28 -20 -10 -11 -26
-18 -34 -15 -8 3 -23 -3 -33 -15 -18 -19 -55 -28 -55 -12 0 4 17 16 38 26 83
41 118 60 129 72 7 7 18 14 25 17 7 2 10 8 6 12 -4 4 -25 -4 -46 -19 -21 -14
-43 -26 -50 -26 -7 0 -12 -7 -12 -16 0 -10 -6 -13 -19 -9 -10 3 -23 -1 -30 -9
-7 -8 -19 -12 -27 -9 -12 4 84 62 166 100 8 3 38 21 65 38 83 52 82 51 66 32
-12 -15 -11 -17 3 -17 9 0 17 5 17 10 1 6 2 14 3 19 1 12 159 131 165 125 6
-6 -36 -44 -49 -44 -5 0 -10 -4 -10 -10 0 -33 79 39 84 76 2 10 14 26 27 36
13 11 41 34 62 51 22 18 48 32 60 32 11 0 22 6 24 13 3 8 -1 10 -14 5 -10 -4
-3 8 17 28 19 19 64 70 100 113 36 43 79 94 97 114 18 21 42 53 55 74 13 20
24 30 26 23 2 -7 -9 -30 -23 -51z m-4239 -51 c7 -10 14 -29 14 -42 0 -30 -5
-25 -25 22 -16 39 -11 49 11 20z m4020 -279 c-11 -7 -22 -12 -25 -9 -2 3 4 12
15 19 10 8 21 12 24 9 3 -2 -4 -11 -14 -19z m-3721 -164 c3 -5 2 -10 -4 -10
-5 0 -13 5 -16 10 -3 6 -2 10 4 10 5 0 13 -4 16 -10z m29 -36 c14 -14 22 -34
13 -34 -2 0 -13 11 -25 25 -24 27 -13 35 12 9z m3366 -74 c0 -5 -19 -22 -42
-37 -24 -16 -49 -34 -56 -41 -17 -15 -52 -34 -52 -28 0 11 57 59 86 71 17 8
36 21 44 29 14 18 20 20 20 6z m-170 -125 c-7 -8 -24 -15 -39 -15 l-26 1 30
14 c40 18 50 18 35 0z m-2940 -25 c0 -5 -2 -10 -4 -10 -3 0 -8 5 -11 10 -3 6
-1 10 4 10 6 0 11 -4 11 -10z m2695 -30 c-3 -5 -16 -10 -28 -10 -18 0 -19 2
-7 10 20 13 43 13 35 0z m110 -20 c-3 -5 -13 -10 -21 -10 -8 0 -12 5 -9 10 3
6 13 10 21 10 8 0 12 -4 9 -10z m-120 -20 c-3 -6 1 -13 10 -17 10 -3 21 0 25
7 4 7 14 10 21 8 8 -3 -23 -24 -68 -46 -46 -22 -83 -37 -83 -32 0 4 21 18 46
29 60 29 50 39 -15 15 -45 -16 -50 -20 -45 -41 5 -17 2 -23 -10 -23 -9 0 -24
-4 -34 -10 -67 -37 -292 -112 -292 -98 0 4 5 8 11 8 5 0 7 5 4 10 -4 6 6 11
22 11 l28 1 -30 8 c-21 5 -24 8 -9 9 11 0 29 8 40 16 10 8 26 15 35 15 8 0 30
11 48 24 19 14 47 28 64 32 16 3 46 13 66 22 20 9 39 15 44 14 4 -1 7 3 7 8 0
6 8 10 18 10 9 0 28 7 42 14 30 17 64 20 55 6z"/>
<path d="M2450 5282 c-12 -15 -29 -30 -38 -34 -16 -6 -16 -7 0 -7 9 -1 20 4
23 9 4 6 15 8 25 5 10 -3 22 0 26 7 26 41 -6 59 -36 20z m30 -2 c0 -5 -8 -10
-17 -10 -15 0 -16 2 -3 10 19 12 20 12 20 0z"/>
<path d="M2151 4973 c-7 -18 -17 -33 -22 -33 -5 0 -9 -6 -9 -14 0 -7 -7 -19
-15 -26 -8 -7 -16 -22 -16 -34 -1 -18 -2 -18 -6 -3 -4 14 -10 8 -29 -27 -13
-25 -24 -52 -24 -61 0 -8 -7 -15 -16 -15 -9 0 -14 -5 -12 -12 6 -16 28 -23 28
-9 0 22 42 101 51 96 5 -3 15 9 23 27 20 43 38 70 54 83 8 6 12 22 10 36 -3
23 -4 23 -17 -8z"/>
<path d="M2076 4788 c3 -4 -4 -20 -15 -35 -11 -16 -23 -41 -27 -58 l-6 -30 18
24 c9 13 27 43 39 67 20 39 20 42 4 41 -10 -1 -15 -5 -13 -9z"/>
<path d="M2010 4646 c0 -14 -4 -28 -10 -31 -5 -3 -10 -17 -10 -31 0 -13 -4
-24 -10 -24 -5 0 -10 -7 -10 -15 0 -8 -4 -15 -9 -15 -5 0 -7 -9 -4 -20 3 -11
0 -26 -6 -34 -8 -9 -8 -16 -2 -20 6 -4 13 9 17 29 3 20 19 61 35 92 31 61 35
78 19 88 -6 3 -10 -5 -10 -19z"/>
<path d="M1930 4518 c0 -29 -3 -38 -9 -29 -7 11 -10 9 -16 -8 -4 -13 -4 -25
-1 -28 3 -4 6 1 6 11 0 9 4 15 9 11 12 -7 17 2 25 48 4 23 3 37 -4 37 -5 0
-10 -19 -10 -42z"/>
<path d="M1881 4368 c0 -28 2 -30 9 -13 12 28 12 45 0 45 -5 0 -10 -15 -9 -32z"/>
<path d="M1822 4273 c-8 -8 -11 -21 -7 -31 6 -14 9 -11 16 12 10 36 8 39 -9
19z"/>
<path d="M1845 4165 c6 -62 4 -80 -10 -101 -11 -17 -13 -30 -7 -36 14 -14 32
68 30 145 -1 37 -6 67 -11 67 -6 0 -6 -30 -2 -75z"/>
<path d="M4750 4202 c0 -5 -26 -7 -57 -6 l-58 3 69 -10 c49 -8 71 -7 76 0 4 8
16 8 36 2 53 -17 91 -23 74 -11 -12 8 -9 10 13 10 16 0 26 4 22 10 -3 6 -15
10 -26 10 -10 0 -19 -4 -19 -10 0 -5 -10 -10 -22 -10 -19 0 -20 2 -8 10 11 7
-2 10 -42 10 -32 0 -58 -4 -58 -8z"/>
<path d="M4546 4181 c-15 -6 -16 -10 -7 -16 7 -4 16 -3 20 3 4 7 23 7 59 0 30
-5 59 -7 65 -4 7 2 0 5 -15 5 -15 1 -30 6 -33 11 -7 12 -61 12 -89 1z"/>
<path d="M4954 4182 c3 -6 0 -13 -6 -15 -7 -3 2 -6 20 -6 38 -1 40 22 3 27
-14 2 -21 0 -17 -6z"/>
<path d="M4477 4159 c8 -8 16 -8 30 0 16 9 14 10 -11 11 -22 0 -27 -3 -19 -11z"/>
<path d="M5015 4160 c-3 -5 1 -10 9 -10 9 0 16 5 16 10 0 6 -4 10 -9 10 -6 0
-13 -4 -16 -10z"/>
<path d="M5050 4162 c0 -13 80 -22 100 -11 10 6 1 8 -27 9 -23 0 -48 3 -57 6
-9 3 -16 2 -16 -4z"/>
<path d="M1826 4125 c-3 -9 -6 -24 -5 -33 0 -9 5 -4 10 12 9 32 6 48 -5 21z"/>
<path d="M5047 4108 c6 -11 63 -10 63 1 0 5 -15 9 -34 8 -19 -1 -32 -5 -29 -9z"/>
<path d="M4345 4100 c-3 -5 -15 -10 -25 -10 -11 0 -24 -9 -30 -20 -6 -11 -17
-20 -24 -20 -18 0 -66 -46 -66 -64 0 -8 -7 -19 -16 -24 -11 -6 -13 -11 -5 -16
15 -10 31 2 31 23 0 21 23 44 34 34 4 -4 4 0 0 10 -5 13 -1 17 20 17 18 0 30
8 37 24 7 14 17 22 25 19 8 -3 14 0 14 6 0 6 9 11 20 11 11 0 20 5 20 10 0 6
-6 10 -14 10 -8 0 -18 -4 -21 -10z"/>
<path d="M5133 4083 c9 -2 23 -2 30 0 6 3 -1 5 -18 5 -16 0 -22 -2 -12 -5z"/>
<path d="M4297 4016 c-4 -10 -1 -13 9 -9 15 6 19 23 5 23 -5 0 -11 -7 -14 -14z"/>
<path d="M1815 3990 c3 -5 8 -10 11 -10 2 0 4 5 4 10 0 6 -5 10 -11 10 -5 0
-7 -4 -4 -10z"/>
<path d="M5128 3993 c6 -2 18 -2 25 0 6 3 1 5 -13 5 -14 0 -19 -2 -12 -5z"/>
<path d="M1810 3935 c0 -8 5 -15 10 -15 6 0 10 7 10 15 0 8 -4 15 -10 15 -5 0
-10 -7 -10 -15z"/>
<path d="M4144 3929 c-9 -15 -2 -18 20 -9 17 6 18 7 3 13 -9 3 -19 2 -23 -4z"/>
<path d="M1842 3875 c0 -16 3 -41 7 -55 7 -24 7 -24 14 9 4 19 3 37 -1 40 -5
3 -12 13 -15 21 -3 8 -5 2 -5 -15z"/>
<path d="M4100 3885 c0 -8 4 -15 9 -15 5 0 11 7 15 15 3 9 0 15 -9 15 -8 0
-15 -7 -15 -15z"/>
<path d="M4135 3860 c-17 -18 -17 -20 -1 -20 9 0 19 7 23 15 9 25 -2 27 -22 5z"/>
<path d="M4109 3788 c23 -6 37 -6 44 1 8 8 -2 11 -33 10 l-45 -1 34 -10z"/>
<path d="M3645 3780 c-3 -5 3 -10 14 -10 12 0 21 -4 21 -8 0 -5 7 -9 15 -9 12
0 11 4 -4 19 -23 20 -37 23 -46 8z"/>
<path d="M3560 3764 l-45 -12 40 -1 c22 0 46 3 54 8 24 15 -3 18 -49 5z"/>
<path d="M3803 3773 c9 -2 23 -2 30 0 6 3 -1 5 -18 5 -16 0 -22 -2 -12 -5z"/>
<path d="M1821 3744 c0 -11 3 -14 6 -6 3 7 2 16 -1 19 -3 4 -6 -2 -5 -13z"/>
<path d="M3500 3745 c0 -8 4 -15 10 -15 5 0 7 7 4 15 -4 8 -8 15 -10 15 -2 0
-4 -7 -4 -15z"/>
<path d="M3760 3750 c0 -5 9 -10 21 -10 11 0 17 5 14 10 -3 6 -13 10 -21 10
-8 0 -14 -4 -14 -10z"/>
<path d="M3815 3750 c-3 -5 1 -10 9 -10 9 0 16 5 16 10 0 6 -4 10 -9 10 -6 0
-13 -4 -16 -10z"/>
<path d="M4608 3753 c6 -2 18 -2 25 0 6 3 1 5 -13 5 -14 0 -19 -2 -12 -5z"/>
<path d="M4665 3750 c-19 -8 -19 -9 2 -9 12 -1 25 4 28 9 7 12 -2 12 -30 0z"/>
<path d="M4318 3743 c7 -3 16 -2 19 1 4 3 -2 6 -13 5 -11 0 -14 -3 -6 -6z"/>
<path d="M4735 3740 c21 -9 8 -14 -30 -11 -17 2 -17 0 -5 -8 17 -12 53 -14 63
-4 10 9 -13 33 -32 32 -12 0 -11 -2 4 -9z"/>
<path d="M3400 3730 c-12 -8 -10 -9 10 -9 14 1 39 5 55 9 29 7 29 8 -10 9 -22
0 -47 -4 -55 -9z"/>
<path d="M4360 3729 c0 -5 5 -7 12 -3 7 5 9 2 6 -8 -4 -9 0 -15 8 -15 8 0 14
9 14 19 0 11 -7 18 -20 18 -11 0 -20 -5 -20 -11z"/>
<path d="M3314 3713 c1 -19 25 -34 40 -25 5 3 1 9 -10 13 -15 6 -13 8 11 8 23
1 27 4 15 11 -25 16 -58 12 -56 -7z"/>
<path d="M3760 3722 c-25 -3 -30 -6 -17 -11 24 -9 97 -1 97 10 0 9 -17 9 -80
1z"/>
<path d="M3241 3711 c-16 -10 -6 -31 15 -31 9 0 12 5 8 11 -4 8 1 9 17 4 21
-7 22 -6 10 9 -15 18 -29 20 -50 7z"/>
<path d="M3420 3700 c-23 -7 -23 -8 -3 -9 12 -1 25 4 28 9 3 6 5 10 3 9 -2 -1
-14 -5 -28 -9z"/>
<path d="M4640 3700 c0 -5 7 -10 15 -10 8 0 15 5 15 10 0 6 -7 10 -15 10 -8 0
-15 -4 -15 -10z"/>
<path d="M3624 3676 c-22 -7 -49 -11 -59 -10 -11 2 -25 -2 -32 -7 -6 -6 -37
-11 -67 -12 -31 -1 -56 -4 -56 -8 0 -13 41 -17 76 -7 20 5 38 7 42 4 3 -3 12
0 20 6 8 7 27 11 42 10 16 -1 31 2 35 8 3 5 17 10 31 10 13 0 24 5 24 10 0 12
-5 12 -56 -4z"/>
<path d="M1790 3669 c0 -19 24 -42 33 -32 12 11 8 35 -4 27 -6 -3 -15 0 -20 7
-7 11 -9 11 -9 -2z"/>
<path d="M3368 3673 c6 -2 18 -2 25 0 6 3 1 5 -13 5 -14 0 -19 -2 -12 -5z"/>
<path d="M3024 3644 c11 -8 23 -14 28 -14 10 0 11 20 1 21 -5 0 -17 2 -28 4
-20 4 -20 4 -1 -11z"/>
<path d="M1880 3628 c0 -18 5 -28 15 -28 14 0 19 -12 16 -32 0 -5 4 -8 9 -8 6
0 10 15 10 34 0 19 -4 38 -10 41 -5 3 -10 1 -10 -6 0 -7 -7 -4 -15 7 -14 18
-14 18 -15 -8z"/>
<path d="M2950 3630 c-12 -8 -11 -10 7 -10 12 0 25 5 28 10 8 13 -15 13 -35 0z"/>
<path d="M1827 3614 c-3 -3 -3 -12 0 -20 3 -8 0 -14 -6 -14 -7 0 -8 -8 -2 -22
10 -26 11 -32 11 -54 0 -8 4 -13 10 -9 6 4 6 15 -1 32 -5 14 -7 41 -3 59 6 33
4 40 -9 28z"/>
<path d="M2888 3603 c7 -3 16 -2 19 1 4 3 -2 6 -13 5 -11 0 -14 -3 -6 -6z"/>
<path d="M3018 3603 c7 -3 16 -2 19 1 4 3 -2 6 -13 5 -11 0 -14 -3 -6 -6z"/>
<path d="M3090 3585 l-35 -13 33 1 c17 0 32 4 32 8 0 4 8 10 18 12 11 3 12 5
2 5 -8 0 -31 -5 -50 -13z"/>
<path d="M2525 3570 c-18 -8 -17 -9 8 -9 15 -1 27 4 27 9 0 12 -8 12 -35 0z"/>
<path d="M2420 3556 c0 -9 37 -12 55 -5 15 6 11 8 -17 8 -21 1 -38 -1 -38 -3z"/>
<path d="M1928 3534 c5 -11 7 -26 4 -34 -3 -11 -2 -12 8 -4 15 15 10 46 -8 52
-11 3 -12 0 -4 -14z"/>
<path d="M2523 3533 c9 -2 23 -2 30 0 6 3 -1 5 -18 5 -16 0 -22 -2 -12 -5z"/>
<path d="M2468 3523 c7 -3 16 -2 19 1 4 3 -2 6 -13 5 -11 0 -14 -3 -6 -6z"/>
<path d="M2728 3513 c6 -2 18 -2 25 0 6 3 1 5 -13 5 -14 0 -19 -2 -12 -5z"/>
<path d="M2828 3513 c6 -2 18 -2 25 0 6 3 1 5 -13 5 -14 0 -19 -2 -12 -5z"/>
<path d="M2033 3492 c-18 -2 -33 -7 -33 -12 0 -4 -10 -6 -22 -3 -21 4 -21 3
-5 -7 26 -17 221 -2 207 15 -8 9 -21 10 -51 4 -23 -5 -46 -6 -53 -2 -6 5 -26
7 -43 5z m35 -19 c-10 -2 -26 -2 -35 0 -10 3 -2 5 17 5 19 0 27 -2 18 -5z"/>
<path d="M1917 3463 c-12 -11 -7 -19 12 -19 11 0 17 5 14 13 -6 14 -16 17 -26
6z"/>
<path d="M2218 3443 c7 -3 16 -2 19 1 4 3 -2 6 -13 5 -11 0 -14 -3 -6 -6z"/>
<path d="M2495 3400 c-11 -5 -34 -9 -51 -9 -17 -1 -44 -8 -60 -15 -16 -8 -44
-18 -63 -21 -19 -3 -42 -10 -52 -15 -10 -6 -31 -10 -47 -10 -36 0 -98 -25 -84
-34 5 -3 27 1 47 10 21 8 43 13 50 11 6 -3 45 6 86 20 93 31 109 35 137 35 12
0 22 4 22 9 0 5 11 9 24 9 14 0 28 5 31 10 7 12 -12 12 -40 0z"/>
<path d="M2090 3291 c0 -7 -5 -9 -12 -5 -7 5 -8 3 -3 -5 5 -9 10 -10 18 -2 6
6 8 14 4 18 -4 3 -7 1 -7 -6z"/>
<path d="M1945 3253 c8 -31 13 -39 20 -31 9 9 -6 58 -17 58 -6 0 -7 -11 -3
-27z"/>
<path d="M2032 3263 c5 -25 28 -28 28 -4 0 12 -6 21 -16 21 -9 0 -14 -7 -12
-17z"/>
<path d="M2001 3224 c0 -11 3 -14 6 -6 3 7 2 16 -1 19 -3 4 -6 -2 -5 -13z"/>
<path d="M2060 3130 c0 -11 5 -20 10 -20 6 0 10 9 10 20 0 11 -4 20 -10 20 -5
0 -10 -9 -10 -20z"/>
<path d="M2030 3101 c0 -5 7 -14 15 -21 16 -14 18 -10 9 14 -6 17 -24 22 -24
7z"/>
<path d="M2126 2971 c-8 -13 3 -19 37 -19 28 0 31 8 5 12 -7 1 -18 5 -25 9 -6
4 -14 3 -17 -2z"/>
<path d="M2210 2951 c0 -6 5 -13 10 -16 6 -3 10 1 10 9 0 9 -4 16 -10 16 -5 0
-10 -4 -10 -9z"/>
<path d="M2310 2917 c0 -16 46 -50 61 -45 5 2 -7 16 -26 31 -24 19 -35 23 -35
14z"/>
<path d="M2305 2850 c3 -5 8 -10 11 -10 2 0 4 5 4 10 0 6 -5 10 -11 10 -5 0
-7 -4 -4 -10z"/>
<path d="M2387 2840 c-3 -13 0 -20 9 -20 8 0 28 -10 44 -22 16 -12 33 -18 37
-13 5 4 2 10 -5 12 -7 3 -18 10 -25 16 -52 48 -54 49 -60 27z"/>
<path d="M2370 2796 c0 -2 7 -9 15 -16 9 -7 15 -8 15 -2 0 5 -7 12 -15 16 -8
3 -15 4 -15 2z"/>
<path d="M2490 2762 c0 -4 16 -16 36 -27 20 -11 43 -30 51 -42 9 -13 25 -23
37 -23 21 1 21 1 1 16 -11 8 -30 24 -42 34 -13 11 -23 18 -23 15 0 -3 -9 4
-20 15 -20 20 -40 26 -40 12z"/>
<path d="M2390 2728 c0 -9 5 -20 10 -23 13 -8 13 5 0 25 -8 13 -10 13 -10 -2z"/>
<path d="M2471 2721 c-9 -6 -10 -11 -2 -15 6 -4 11 -2 11 4 0 6 5 8 10 5 6 -3
10 -1 10 4 0 13 -10 14 -29 2z"/>
<path d="M2590 2640 c18 -12 30 -13 30 -2 0 4 -10 9 -22 9 -18 2 -20 0 -8 -7z"/>
<path d="M2800 2525 c0 -9 -6 -12 -17 -8 -10 4 -14 2 -10 -4 7 -11 67 -16 67
-5 0 4 -9 13 -20 20 -17 10 -20 10 -20 -3z"/>
<path d="M2880 2531 c0 -5 10 -12 23 -16 l22 -8 -22 -4 c-12 -2 -24 -11 -27
-19 -4 -11 4 -9 34 7 37 21 41 21 58 6 20 -19 42 -22 42 -8 0 8 -21 16 -117
46 -7 3 -13 1 -13 -4z"/>
<path d="M2780 2476 c0 -3 24 -12 53 -21 28 -9 77 -28 107 -42 92 -43 97 -45
116 -41 10 2 20 12 23 23 3 17 1 17 -12 6 -19 -15 -42 -10 -113 25 -27 13 -60
26 -71 28 -12 3 -31 9 -42 15 -19 11 -61 15 -61 7z"/>
<path d="M2945 2460 c3 -5 8 -10 11 -10 2 0 4 5 4 10 0 6 -5 10 -11 10 -5 0
-7 -4 -4 -10z"/>
<path d="M3010 2448 c0 -4 7 -8 15 -8 8 0 15 4 15 8 0 5 -7 9 -15 9 -8 0 -15
-4 -15 -9z"/>
<path d="M3210 2416 c6 -8 18 -12 27 -9 12 5 12 7 1 14 -7 5 -19 9 -27 9 -11
0 -11 -3 -1 -14z"/>
<path d="M3128 2413 c7 -3 16 -2 19 1 4 3 -2 6 -13 5 -11 0 -14 -3 -6 -6z"/>
<path d="M3150 2400 c-13 -8 -13 -10 2 -10 9 0 20 5 23 10 8 13 -5 13 -25 0z"/>
<path d="M4578 2405 c-3 -3 -16 -8 -28 -10 -37 -7 -49 -25 -17 -25 15 0 27 5
27 10 0 6 10 10 23 11 12 0 31 4 42 9 17 7 15 9 -11 9 -17 1 -33 -1 -36 -4z"/>
<path d="M4650 2396 c0 -2 7 -6 15 -10 8 -3 15 -1 15 4 0 6 -7 10 -15 10 -8 0
-15 -2 -15 -4z"/>
<path d="M4428 2373 c-16 -2 -28 -9 -28 -15 0 -6 12 -8 31 -4 17 3 35 6 40 6
5 0 9 5 9 10 0 10 -3 10 -52 3z"/>
<path d="M3591 2341 c-9 -6 -4 -8 18 -7 17 0 31 4 31 8 0 11 -32 10 -49 -1z"/>
<path d="M4135 2340 c-33 -4 -55 -8 -50 -9 22 -6 145 1 172 9 25 7 23 8 -17 7
-25 0 -72 -3 -105 -7z"/>
<path d="M4305 2340 c-16 -7 -17 -9 -3 -9 9 -1 20 4 23 9 7 11 7 11 -20 0z"/>
<path d="M4480 2341 c0 -10 26 -9 36 2 4 4 -2 7 -14 7 -12 0 -22 -4 -22 -9z"/>
<path d="M3468 2333 c6 -2 18 -2 25 0 6 3 1 5 -13 5 -14 0 -19 -2 -12 -5z"/>
<path d="M3688 2333 c6 -2 18 -2 25 0 6 3 1 5 -13 5 -14 0 -19 -2 -12 -5z"/>
<path d="M3768 2333 c6 -2 18 -2 25 0 6 3 1 5 -13 5 -14 0 -19 -2 -12 -5z"/>
<path d="M3920 2329 l-85 -5 100 -1 c55 -1 109 2 120 7 22 10 20 10 -135 -1z"/>
<path d="M3340 2310 c-22 -6 -23 -8 -6 -15 11 -5 21 -3 26 5 6 9 13 7 29 -9
14 -14 34 -21 60 -21 22 0 46 -3 55 -6 9 -3 16 -1 16 5 0 6 -12 11 -26 11 -14
0 -32 7 -40 15 -9 8 -26 15 -39 15 -13 0 -29 2 -37 4 -7 2 -24 1 -38 -4z m100
-20 c0 -5 -2 -10 -4 -10 -3 0 -8 5 -11 10 -3 6 -1 10 4 10 6 0 11 -4 11 -10z"/>
<path d="M3468 2313 c7 -3 16 -2 19 1 4 3 -2 6 -13 5 -11 0 -14 -3 -6 -6z"/>
<path d="M4483 2313 c9 -2 23 -2 30 0 6 3 -1 5 -18 5 -16 0 -22 -2 -12 -5z"/>
<path d="M4123 2303 c9 -2 23 -2 30 0 6 3 -1 5 -18 5 -16 0 -22 -2 -12 -5z"/>
<path d="M4248 2303 c6 -2 18 -2 25 0 6 3 1 5 -13 5 -14 0 -19 -2 -12 -5z"/>
<path d="M3858 2293 c12 -2 32 -2 45 0 12 2 2 4 -23 4 -25 0 -35 -2 -22 -4z"/>
<path d="M3600 2263 c0 -14 34 -16 65 -4 16 7 11 9 -22 12 -30 3 -43 1 -43 -8z"/>
<path d="M4080 2266 c0 -2 18 -6 40 -8 22 -2 40 0 40 4 0 5 -18 8 -40 8 -22 0
-40 -2 -40 -4z"/>
<path d="M3758 2243 c45 -2 119 -2 165 0 45 1 8 3 -83 3 -91 0 -128 -2 -82 -3z"/>
<path d="M4028 2243 c12 -2 30 -2 40 0 9 3 -1 5 -23 4 -22 0 -30 -2 -17 -4z"/>
<path d="M6039 3290 c-1 -5 -2 -16 -3 -22 0 -7 -11 -17 -23 -23 -31 -13 -29
-23 3 -17 23 4 44 34 44 63 0 12 -20 12 -21 -1z"/>
<path d="M5963 3203 c-7 -2 -13 -13 -13 -24 0 -11 -7 -19 -16 -19 -8 0 -12 -5
-9 -10 4 -6 11 -8 16 -5 5 4 9 1 9 -4 0 -6 5 -11 10 -11 6 0 10 7 10 15 0 8 8
15 18 15 16 1 16 1 0 14 -19 14 -25 32 -8 21 6 -3 10 -1 10 4 0 12 -7 13 -27
4z"/>
<path d="M6005 3199 c-11 -16 -1 -19 13 -3 7 8 8 14 3 14 -5 0 -13 -5 -16 -11z"/>
<path d="M5720 2960 c0 -5 7 -10 16 -10 8 0 12 5 9 10 -3 6 -10 10 -16 10 -5
0 -9 -4 -9 -10z"/>
<path d="M5765 2950 c-3 -5 -2 -10 4 -10 5 0 13 5 16 10 3 6 2 10 -4 10 -5 0
-13 -4 -16 -10z"/>
<path d="M5705 2921 c-10 -17 12 -21 25 -6 10 12 10 15 -3 15 -9 0 -18 -4 -22
-9z"/>
<path d="M5680 2887 c0 -8 -16 -22 -35 -31 -19 -9 -35 -22 -35 -27 0 -6 3 -9
8 -7 46 22 60 32 70 48 7 12 8 21 2 25 -6 3 -10 0 -10 -8z"/>
<path d="M5560 2835 c-14 -16 -10 -18 14 -9 9 3 16 10 16 15 0 14 -16 11 -30
-6z"/>
<path d="M5420 2744 c-33 -32 -9 -31 26 1 16 15 21 25 13 24 -8 0 -25 -11 -39
-25z"/>
<path d="M4980 2480 c0 -13 30 -13 50 0 11 7 7 10 -17 10 -18 0 -33 -4 -33
-10z"/>
<path d="M4920 2474 c0 -9 40 -23 44 -15 3 5 -5 11 -19 13 -14 3 -25 4 -25 2z"/>
<path d="M4885 2440 c-3 -5 -16 -10 -28 -11 -21 0 -21 -1 -2 -8 11 -5 22 -4
23 0 2 5 12 9 22 9 10 0 22 5 25 10 3 6 -3 10 -14 10 -11 0 -23 -4 -26 -10z"/>
<path d="M4800 2400 c0 -13 11 -13 30 0 12 8 11 10 -7 10 -13 0 -23 -4 -23
-10z"/>
</g>
</svg>
