<?xml version="1.0" standalone="no"?>
<!DOCTYPE svg PUBLIC "-//W3C//DTD SVG 20010904//EN"
 "http://www.w3.org/TR/2001/REC-SVG-20010904/DTD/svg10.dtd">
<svg version="1.0" xmlns="http://www.w3.org/2000/svg"
 width="1000.000000pt" height="1000.000000pt" viewBox="0 0 1000.000000 1000.000000"
 preserveAspectRatio="xMidYMid meet">

<g transform="translate(0.000000,1000.000000) scale(0.100000,-0.100000)"
fill="#000000" stroke="none">
<path d="M2512 8188 c-9 -9 -12 -105 -13 -362 -1 -193 -3 -343 -6 -333 -4 16
-24 17 -233 17 -194 0 -231 -2 -244 -16 -14 -14 -16 -255 -16 -2502 0 -1368 3
-2497 6 -2509 5 -19 39 -33 233 -97 1295 -428 2522 -557 3761 -395 401 52 827
143 1240 263 164 47 617 200 628 211 4 4 8 1133 10 2510 2 2269 1 2505 -14
2519 -13 14 -47 16 -224 16 -190 0 -209 -2 -213 -17 -3 -10 -5 140 -6 333 -1
257 -4 353 -13 362 -17 17 -4879 17 -4896 0z m4878 -2512 l0 -2494 -92 -40
c-330 -145 -758 -284 -1108 -361 -446 -99 -845 -137 -1315 -128 -542 11 -985
80 -1541 241 -244 70 -615 202 -776 277 l-28 12 0 2494 0 2493 2430 0 2430 0
0 -2494z"/>
<path d="M4885 7397 c-85 -31 -121 -53 -177 -105 -124 -116 -173 -243 -167
-432 4 -101 6 -109 48 -195 94 -193 255 -295 467 -295 156 0 243 40 366 167
159 166 193 392 88 600 -45 90 -149 192 -245 239 -78 38 -82 39 -200 41 -102
2 -129 -1 -180 -20z"/>
<path d="M3634 7134 c-43 -21 -57 -53 -38 -89 8 -15 14 -32 14 -39 0 -6 -35
-22 -77 -35 -101 -31 -137 -47 -198 -89 -141 -99 -200 -186 -272 -402 -22 -65
-48 -122 -69 -149 -19 -24 -34 -49 -34 -55 1 -16 32 -52 57 -65 15 -8 227 -11
728 -11 708 0 735 1 757 34 17 25 7 79 -22 119 -16 23 -40 78 -54 122 -14 44
-45 118 -68 165 -82 165 -257 307 -421 340 l-58 12 7 44 c10 67 1 89 -44 102
-56 17 -171 15 -208 -4z"/>
<path d="M4638 6212 c-15 -10 -41 -37 -57 -59 -28 -38 -73 -63 -118 -63 -27 0
-75 -57 -121 -143 -27 -51 -70 -132 -97 -182 -27 -49 -59 -111 -73 -137 -13
-27 -30 -48 -37 -48 -14 0 -37 54 -78 185 -44 144 -49 124 50 220 104 101 103
109 -19 104 -76 -4 -88 -7 -128 -36 -38 -29 -52 -33 -104 -33 -68 0 -138 17
-208 49 -38 17 -66 21 -147 21 -76 0 -101 -3 -101 -13 0 -21 60 -71 126 -104
94 -48 172 -101 178 -121 4 -11 11 -48 16 -83 5 -35 16 -111 24 -169 8 -58 20
-134 26 -170 7 -36 13 -76 15 -90 13 -115 22 -161 53 -279 20 -76 67 -130 128
-149 108 -32 158 -4 354 192 85 86 160 156 167 156 10 0 13 -78 13 -365 l0
-365 578 2 577 3 3 453 c1 283 6 452 12 450 5 -2 52 -34 105 -72 73 -54 95
-75 95 -93 0 -15 -22 -47 -60 -88 l-60 -64 0 -275 c0 -151 3 -277 8 -279 4 -3
134 119 290 271 249 245 286 285 317 346 39 77 46 147 21 207 -29 70 -151 217
-361 439 -77 82 -171 183 -210 225 -57 64 -83 84 -151 116 -81 39 -82 39 -202
39 l-121 0 -130 -120 c-72 -66 -136 -120 -143 -120 -7 0 -72 59 -143 130
l-130 130 -65 0 c-46 0 -73 -5 -92 -18z"/>
<path d="M2950 4015 l0 -65 60 0 60 0 0 -190 0 -190 60 0 60 0 0 190 0 190 60
0 60 0 0 65 0 65 -180 0 -180 0 0 -65z"/>
<path d="M3380 3825 l0 -255 60 0 60 0 0 95 c0 52 4 95 8 95 17 0 40 -37 72
-112 l32 -78 69 0 c38 0 69 2 69 5 0 16 -72 181 -85 195 -14 15 -13 19 6 36
75 67 61 232 -22 261 -19 7 -87 12 -151 12 l-118 1 0 -255z m208 113 c22 -22
-5 -48 -48 -48 -38 0 -40 2 -40 30 0 28 2 30 38 30 21 0 43 -5 50 -12z"/>
<path d="M3915 4068 c-2 -7 -32 -114 -65 -238 -34 -124 -63 -233 -66 -242 -5
-16 3 -18 60 -18 l66 0 6 40 7 40 59 0 c38 0 60 -4 62 -12 3 -7 7 -25 10 -40
6 -27 9 -28 72 -28 64 0 66 1 60 23 -3 12 -33 127 -67 255 l-62 232 -69 0
c-46 0 -70 -4 -73 -12z m77 -286 c-13 -2 -26 -1 -29 2 -3 3 0 34 8 68 l13 63
16 -65 16 -65 -24 -3z"/>
<path d="M4250 3825 l0 -255 60 0 60 0 0 75 0 75 46 0 c106 0 149 53 149 185
0 63 -4 88 -21 115 -30 52 -54 60 -181 60 l-113 0 0 -255z m184 109 c9 -8 16
-23 16 -31 0 -25 -30 -53 -57 -53 -21 0 -23 4 -23 50 0 46 2 50 24 50 14 0 32
-7 40 -16z"/>
<path d="M4650 3825 l0 -255 160 0 160 0 0 65 0 65 -100 0 -100 0 0 40 0 40
90 0 90 0 0 65 0 65 -90 0 c-83 0 -90 1 -90 20 0 19 7 20 95 20 l95 0 0 65 0
65 -155 0 -155 0 0 -255z"/>
<path d="M5050 4015 l0 -65 85 0 85 0 -95 -127 -95 -126 0 -64 0 -63 180 0
180 0 0 65 0 64 -99 3 -100 3 94 125 94 125 1 63 0 62 -165 0 -165 0 0 -65z"/>
<path d="M5555 4068 c-2 -7 -32 -114 -65 -238 -34 -124 -63 -233 -66 -242 -5
-16 3 -18 60 -18 l66 0 6 40 7 40 59 0 c38 0 60 -4 62 -12 3 -7 7 -25 10 -40
6 -27 9 -28 72 -28 64 0 66 1 60 23 -3 12 -33 127 -67 255 l-62 232 -69 0
c-46 0 -70 -4 -73 -12z m77 -286 c-13 -2 -26 -1 -29 2 -3 3 0 34 8 68 l13 63
16 -65 16 -65 -24 -3z"/>
<path d="M5890 3825 l0 -255 60 0 60 0 0 95 c0 52 4 95 8 95 17 0 40 -37 72
-112 l32 -78 69 0 c38 0 69 2 69 5 0 16 -72 181 -85 195 -14 15 -13 19 6 36
75 67 61 232 -22 261 -19 7 -87 12 -151 12 l-118 1 0 -255z m208 113 c22 -22
-5 -48 -48 -48 -38 0 -40 2 -40 30 0 28 2 30 38 30 21 0 43 -5 50 -12z"/>
<path d="M6330 3825 l0 -255 65 0 65 0 0 255 0 255 -65 0 -65 0 0 -255z"/>
<path d="M6655 4068 c-2 -7 -32 -114 -65 -238 -34 -124 -63 -233 -66 -242 -5
-16 3 -18 60 -18 l66 0 6 40 7 40 59 0 c38 0 60 -4 62 -12 3 -7 7 -25 10 -40
6 -27 9 -28 72 -28 64 0 66 1 60 23 -3 12 -33 127 -67 255 l-62 232 -69 0
c-46 0 -70 -4 -73 -12z m77 -286 c-13 -2 -26 -1 -29 2 -3 3 0 34 8 68 l13 63
16 -65 16 -65 -24 -3z"/>
</g>
</svg>
